<svg width="800" height="666" viewBox="0 0 800 666" fill="none" xmlns="http://www.w3.org/2000/svg">
<path d="M40.7628 663.051L0.33467 571.772C-0.111557 570.789 -0.111557 569.895 0.33467 569.091C0.691651 568.286 1.45024 567.884 2.61042 567.884H24.4309C25.3234 567.884 26.1712 568.197 26.9744 568.823C27.8668 569.359 28.5362 570.029 28.9824 570.833L52.5432 624.716C52.9894 625.521 53.5695 625.923 54.2835 625.923C54.9974 625.923 55.5775 625.521 56.0237 624.716L79.4506 570.833C79.8968 570.029 80.5216 569.359 81.3248 568.823C82.2172 568.197 83.1097 567.884 84.0021 567.884H106.224C107.206 567.884 107.92 568.286 108.366 569.091C108.812 569.806 108.857 570.52 108.5 571.235L67.6702 663.051C67.224 663.855 66.5547 664.57 65.6622 665.196C64.859 665.732 64.0112 666 63.1187 666H45.3143C44.4218 666 43.5294 665.732 42.6369 665.196C41.8337 664.57 41.209 663.855 40.7628 663.051Z" fill="#2E9AFF"/>
<path d="M140.449 666H120.235C119.254 666 118.45 665.687 117.826 665.062C117.29 664.436 117.023 663.677 117.023 662.783V571.235C117.023 570.342 117.29 569.582 117.826 568.957C118.45 568.331 119.254 568.018 120.235 568.018H140.449C141.342 568.018 142.1 568.331 142.725 568.957C143.35 569.582 143.662 570.342 143.662 571.235V662.783C143.662 663.677 143.35 664.436 142.725 665.062C142.1 665.687 141.342 666 140.449 666Z" fill="#2E9AFF"/>
<path d="M228.514 615.468C229.942 616.272 231.369 617.255 232.797 618.417C234.225 619.578 235.519 621.008 236.68 622.706C237.929 624.404 238.911 626.37 239.625 628.603C240.428 630.837 240.829 633.384 240.829 636.244C240.829 642.052 239.892 646.877 238.018 650.72C236.233 654.473 233.779 657.511 230.655 659.834C227.532 662.068 223.917 663.677 219.812 664.66C215.796 665.553 211.557 666 207.095 666H164.659C163.766 666 163.008 665.687 162.383 665.062C161.758 664.436 161.446 663.677 161.446 662.783V571.101C161.446 570.208 161.758 569.448 162.383 568.823C163.008 568.197 163.766 567.884 164.659 567.884H205.087C209.37 567.884 213.476 568.376 217.403 569.359C221.329 570.252 224.765 571.771 227.71 573.916C230.745 576.061 233.154 578.876 234.939 582.361C236.813 585.756 237.75 589.956 237.75 594.96C237.75 598.981 236.724 602.466 234.672 605.415C232.708 608.364 230.566 610.687 228.246 612.385C226.639 613.547 226.729 614.574 228.514 615.468ZM191.164 605.147H203.614C205.399 605.147 206.827 604.477 207.898 603.136C208.969 601.707 209.504 600.143 209.504 598.445C209.504 596.837 208.835 595.451 207.496 594.29C206.247 593.128 205.042 592.547 203.882 592.547H191.164C190.272 592.547 189.513 592.86 188.889 593.486C188.264 594.111 187.952 594.871 187.952 595.764V601.93C187.952 602.824 188.264 603.583 188.889 604.209C189.513 604.834 190.272 605.147 191.164 605.147ZM205.221 627.263H191.164C190.272 627.263 189.513 627.576 188.889 628.201C188.264 628.827 187.952 629.586 187.952 630.48V638.12C187.952 639.014 188.264 639.773 188.889 640.399C189.513 641.024 190.272 641.337 191.164 641.337H206.158C207.764 641.337 209.281 640.667 210.709 639.326C212.137 637.986 212.851 636.422 212.851 634.635C212.851 633.027 212.137 631.418 210.709 629.81C209.371 628.112 207.541 627.263 205.221 627.263Z" fill="#2E9AFF"/>
<path d="M281.682 595.764V601.394C281.682 602.287 281.995 603.047 282.619 603.672C283.244 604.298 284.003 604.611 284.895 604.611H321.173C322.066 604.611 322.824 604.923 323.449 605.549C324.074 606.175 324.386 606.934 324.386 607.828V626.325C324.386 627.218 324.074 627.978 323.449 628.603C322.824 629.229 322.066 629.542 321.173 629.542H284.895C284.003 629.542 283.244 629.854 282.619 630.48C281.995 631.106 281.682 631.865 281.682 632.759V637.852C281.682 638.746 281.995 639.505 282.619 640.131C283.244 640.756 284.003 641.069 284.895 641.069H326.528C327.42 641.069 328.179 641.382 328.804 642.007C329.428 642.633 329.741 643.392 329.741 644.286V662.783C329.741 663.677 329.428 664.436 328.804 665.062C328.179 665.687 327.42 666 326.528 666H258.389C257.497 666 256.738 665.687 256.113 665.062C255.489 664.436 255.176 663.677 255.176 662.783V571.101C255.176 570.208 255.489 569.448 256.113 568.823C256.738 568.197 257.497 567.884 258.389 567.884H326.528C327.42 567.884 328.179 568.197 328.804 568.823C329.428 569.448 329.741 570.208 329.741 571.101V589.33C329.741 590.224 329.428 590.984 328.804 591.609C328.179 592.235 327.42 592.547 326.528 592.547H284.895C284.003 592.547 283.244 592.86 282.619 593.486C281.995 594.111 281.682 594.871 281.682 595.764Z" fill="#2E9AFF"/>
<path d="M413.759 615.468C415.187 616.272 416.614 617.255 418.042 618.417C419.47 619.578 420.764 621.008 421.925 622.706C423.174 624.404 424.156 626.37 424.87 628.603C425.673 630.837 426.074 633.384 426.074 636.244C426.074 642.052 425.137 646.877 423.263 650.72C421.478 654.473 419.024 657.511 415.9 659.834C412.777 662.068 409.162 663.677 405.057 664.66C401.041 665.553 396.802 666 392.34 666H349.904C349.011 666 348.253 665.687 347.628 665.062C347.003 664.436 346.691 663.677 346.691 662.783V571.101C346.691 570.208 347.003 569.448 347.628 568.823C348.253 568.197 349.011 567.884 349.904 567.884H390.332C394.615 567.884 398.721 568.376 402.648 569.359C406.574 570.252 410.01 571.771 412.955 573.916C415.99 576.061 418.399 578.876 420.184 582.361C422.058 585.756 422.995 589.956 422.995 594.96C422.995 598.981 421.969 602.466 419.917 605.415C417.953 608.364 415.811 610.687 413.491 612.385C411.884 613.547 411.974 614.574 413.759 615.468ZM376.409 605.147H388.859C390.644 605.147 392.072 604.477 393.143 603.136C394.214 601.707 394.749 600.143 394.749 598.445C394.749 596.837 394.08 595.451 392.741 594.29C391.492 593.128 390.287 592.547 389.127 592.547H376.409C375.517 592.547 374.758 592.86 374.134 593.486C373.509 594.111 373.197 594.871 373.197 595.764V601.93C373.197 602.824 373.509 603.583 374.134 604.209C374.758 604.834 375.517 605.147 376.409 605.147ZM390.466 627.263H376.409C375.517 627.263 374.758 627.576 374.134 628.201C373.509 628.827 373.197 629.586 373.197 630.48V638.12C373.197 639.014 373.509 639.773 374.134 640.399C374.758 641.024 375.517 641.337 376.409 641.337H391.403C393.009 641.337 394.526 640.667 395.954 639.326C397.382 637.986 398.096 636.422 398.096 634.635C398.096 633.027 397.382 631.418 395.954 629.81C394.615 628.112 392.786 627.263 390.466 627.263Z" fill="#FFAF2E"/>
<path d="M465.157 570.967C465.514 570.163 466.094 569.493 466.897 568.957C467.789 568.331 468.726 568.018 469.708 568.018H488.45C489.342 568.018 490.19 568.331 490.993 568.957C491.886 569.493 492.51 570.163 492.867 570.967L531.957 662.113C532.314 662.917 532.224 663.766 531.689 664.66C531.243 665.553 530.306 666 528.878 666H505.986C505.005 666 504.067 665.732 503.175 665.196C502.372 664.57 501.747 663.855 501.301 663.051L497.686 655.009C497.24 654.205 496.571 653.535 495.678 652.998C494.875 652.373 494.027 652.06 493.135 652.06H464.889C463.907 652.06 462.97 652.373 462.078 652.998C461.274 653.535 460.694 654.205 460.337 655.009L456.589 663.051C456.232 663.855 455.607 664.57 454.715 665.196C453.912 665.732 453.064 666 452.171 666H429.146C428.7 666 428.254 665.911 427.807 665.732C427.272 665.553 426.87 665.285 426.603 664.928C426.246 664.57 426.023 664.124 425.933 663.587C425.844 663.051 425.978 662.426 426.335 661.711L465.157 570.967ZM473.055 629.274H484.969C485.861 629.274 486.486 629.006 486.843 628.469C487.289 627.844 487.289 627.129 486.843 626.325C485.951 624.091 484.88 621.5 483.63 618.551C482.381 615.512 481.221 612.698 480.15 610.106C479.793 609.302 479.391 608.9 478.945 608.9C478.499 608.9 478.097 609.302 477.74 610.106L471.047 626.325C470.69 627.129 470.69 627.844 471.047 628.469C471.404 629.006 472.073 629.274 473.055 629.274Z" fill="#FFAF2E"/>
<path d="M611.094 571.772L577.627 626.057C577.18 626.861 576.779 627.844 576.422 629.006C576.065 630.167 575.886 631.195 575.886 632.088V662.783C575.886 663.677 575.574 664.436 574.949 665.062C574.324 665.687 573.566 666 572.673 666H552.459C551.567 666 550.808 665.687 550.184 665.062C549.559 664.436 549.247 663.677 549.247 662.783V632.222C549.247 631.329 549.068 630.301 548.711 629.14C548.443 627.889 548.086 626.906 547.64 626.191C542.285 616.987 536.797 607.962 531.174 599.115C525.641 590.269 520.108 581.154 514.575 571.772C514.129 570.967 514.039 570.163 514.307 569.359C514.575 568.465 515.155 568.018 516.047 568.018H539.876C540.768 568.018 541.661 568.287 542.553 568.823C543.535 569.359 544.249 570.029 544.695 570.833L561.161 599.517C561.607 600.232 562.142 600.59 562.767 600.59C563.392 600.59 563.927 600.232 564.374 599.517L580.705 570.833C581.152 570.029 581.821 569.359 582.714 568.823C583.695 568.287 584.632 568.018 585.525 568.018H609.621C610.513 568.018 611.138 568.331 611.495 568.957C611.941 569.582 611.807 570.521 611.094 571.772Z" fill="#FFAF2E"/>
<path d="M631.707 570.967C632.064 570.163 632.644 569.493 633.447 568.957C634.34 568.331 635.277 568.018 636.259 568.018H655C655.893 568.018 656.74 568.331 657.544 568.957C658.436 569.493 659.061 570.163 659.418 570.967L698.507 662.113C698.864 662.917 698.775 663.766 698.239 664.66C697.793 665.553 696.856 666 695.428 666H672.537C671.555 666 670.618 665.732 669.726 665.196C668.922 664.57 668.298 663.855 667.851 663.051L664.237 655.009C663.791 654.205 663.121 653.535 662.229 652.998C661.426 652.373 660.578 652.06 659.685 652.06H631.439C630.458 652.06 629.521 652.373 628.628 652.998C627.825 653.535 627.245 654.205 626.888 655.009L623.14 663.051C622.783 663.855 622.158 664.57 621.265 665.196C620.462 665.732 619.614 666 618.722 666H595.697C595.25 666 594.804 665.911 594.358 665.732C593.822 665.553 593.421 665.285 593.153 664.928C592.796 664.57 592.573 664.124 592.484 663.587C592.395 663.051 592.528 662.426 592.885 661.711L631.707 570.967ZM639.605 629.274H651.52C652.412 629.274 653.037 629.006 653.394 628.469C653.84 627.844 653.84 627.129 653.394 626.325C652.501 624.091 651.43 621.5 650.181 618.551C648.931 615.512 647.771 612.698 646.7 610.106C646.343 609.302 645.942 608.9 645.495 608.9C645.049 608.9 644.648 609.302 644.291 610.106L637.597 626.325C637.24 627.129 637.24 627.844 637.597 628.469C637.954 629.006 638.624 629.274 639.605 629.274Z" fill="#FFAF2E"/>
<path d="M800 571.101V662.783C800 663.677 799.688 664.436 799.063 665.062C798.438 665.687 797.68 666 796.787 666H776.975C776.082 666 775.145 665.732 774.164 665.196C773.182 664.66 772.423 664.034 771.888 663.319L736.948 614.127C736.413 613.413 735.833 613.144 735.208 613.323C734.672 613.413 734.405 613.904 734.405 614.798V662.783C734.405 663.677 734.092 664.436 733.468 665.062C732.843 665.687 732.084 666 731.192 666H711.246C710.353 666 709.595 665.687 708.97 665.062C708.345 664.436 708.033 663.677 708.033 662.783V571.101C708.033 570.208 708.345 569.448 708.97 568.823C709.595 568.197 710.353 567.884 711.246 567.884H731.326C732.218 567.884 733.155 568.152 734.137 568.689C735.119 569.135 735.877 569.716 736.413 570.431L771.218 619.623C771.754 620.338 772.289 620.651 772.825 620.561C773.45 620.472 773.762 619.98 773.762 619.087V571.101C773.762 570.208 774.074 569.448 774.699 568.823C775.324 568.197 776.082 567.884 776.975 567.884H796.787C797.68 567.884 798.438 568.197 799.063 568.823C799.688 569.448 800 570.208 800 571.101Z" fill="#FFAF2E"/>
<path d="M409.942 8.87445e-05C464.267 8.87445e-05 516.417 21.3277 554.91 59.3983C589.765 93.8273 607.922 132.368 612.721 172.394C617.496 212.075 608.96 251.908 592.683 289.26C560.374 363.567 496.157 431.139 434.56 475.104C427.38 480.248 418.77 483.011 409.942 483.011C401.115 483.011 392.507 480.247 385.328 475.104C340.273 442.946 293.819 398.142 259.463 347.329H411.065C429.786 347.329 447.43 343.945 463.991 337.176C480.191 330.052 494.413 320.434 506.654 308.322C518.894 296.21 528.615 282.138 535.815 266.108C542.655 249.721 546.073 232.265 546.073 213.741C546.073 195.218 542.655 177.941 535.815 161.911C528.615 145.524 518.894 131.272 506.654 119.161C494.414 107.049 480.191 97.6105 463.991 90.8421C447.43 83.7174 429.786 80.1536 411.065 80.1536C392.345 80.1538 374.884 83.7176 358.683 90.8421C342.123 97.6105 327.721 107.049 315.481 119.161C303.24 131.273 293.7 145.524 286.859 161.911C279.659 177.941 276.062 195.218 276.062 213.741C276.062 225.496 277.679 236.895 280.919 247.938C283.799 258.981 287.942 269.313 293.343 278.932H222.912C209.479 244.609 202.852 208.438 207.167 172.37C211.966 132.368 230.123 93.8522 264.978 59.3983C303.623 21.2894 355.702 -0.050218 409.942 8.87445e-05Z" fill="#2E9AFF"/>
<path d="M411.065 148.551C420.065 148.551 428.707 150.331 436.987 153.893C444.907 157.099 451.93 161.733 458.051 167.789C463.81 173.488 468.492 180.433 472.092 188.626C475.332 196.463 476.949 204.835 476.949 213.741C476.949 222.647 475.332 231.196 472.092 239.389C468.492 247.226 463.811 254.174 458.051 260.23C451.93 265.93 444.907 270.559 436.987 274.121C428.707 277.327 420.066 278.932 411.065 278.932H408.365C399.725 278.575 391.625 276.795 384.065 273.59C376.145 270.027 369.484 265.394 364.084 259.694C358.324 253.638 353.822 246.694 350.582 238.857C346.982 231.02 345.185 222.647 345.185 213.741C345.185 204.835 346.982 196.463 350.582 188.626C353.822 180.433 358.504 173.488 364.623 167.789C370.384 161.733 377.407 157.099 385.687 153.893C393.607 150.332 402.066 148.551 411.065 148.551Z" fill="#2E9AFF"/>
</svg>
